<?xml version="1.0" encoding="iso-8859-1"?>
<!-- Generator: Adobe Illustrator 19.0.0, SVG Export Plug-In . SVG Version: 6.00 Build 0)  -->
<svg version="1.1" id="Layer_1" xmlns="http://www.w3.org/2000/svg" xmlns:xlink="http://www.w3.org/1999/xlink" x="0px" y="0px"
	 viewBox="0 0 512 512" style="enable-background:new 0 0 512 512;" xml:space="preserve">
<g>
	<g>
		<path d="M501.328,282.66h-121.14c2.625-10.219,4.031-20.938,4.031-32c0-70.812-57.406-128.219-128.219-128.219
			S127.781,179.848,127.781,250.66c0,11.062,1.406,21.781,4.031,32H10.672C4.781,282.66,0,287.441,0,293.332
			s4.781,10.672,10.672,10.672h490.656c5.891,0,10.672-4.781,10.672-10.672S507.219,282.66,501.328,282.66z M358.031,282.66H153.969
			c-3.188-10.219-4.86-20.984-4.86-32c0-28.547,11.125-55.391,31.312-75.578c20.187-20.187,47.032-31.312,75.579-31.312
			s55.391,11.125,75.578,31.312c20.187,20.187,31.312,47.031,31.312,75.578C362.89,261.676,361.218,272.441,358.031,282.66z"/>
	</g>
</g>
<g>
	<g>
		<path d="M96,239.996H32c-5.891,0-10.672,4.773-10.672,10.664c0,5.891,4.781,10.672,10.672,10.672h64
			c5.891,0,10.672-4.781,10.672-10.672S101.891,239.996,96,239.996z"/>
	</g>
</g>
<g>
	<g>
		<path d="M480,239.996c-0.016,0-0.016,0-0.031,0H416c-5.891,0-10.672,4.773-10.672,10.664c0,5.891,4.781,10.656,10.672,10.672h64
			c5.891,0,10.672-4.781,10.672-10.672S485.891,239.996,480,239.996z"/>
	</g>
</g>
<g>
	<g>
		<path d="M421.938,84.73c-4.172-4.172-10.922-4.172-15.094,0c0,0,0,0.008-0.016,0.016l-45.234,45.234
			c-4.172,4.172-4.156,10.922,0,15.086c4.172,4.164,10.922,4.164,15.094,0v-0.008l45.25-45.242v-0.008
			C426.094,95.644,426.094,88.894,421.938,84.73z"/>
	</g>
</g>
<g>
	<g>
		<path d="M256,15.996c-5.891,0-10.672,4.773-10.672,10.664c0,0.016,0,0.023,0,0.023V90.66c0,5.891,4.781,10.672,10.672,10.672
			s10.672-4.781,10.672-10.672v-64C266.672,20.769,261.891,15.996,256,15.996z"/>
	</g>
</g>
<g>
	<g>
		<path d="M150.407,129.98l-0.016-0.008L105.156,84.73c-4.172-4.164-10.922-4.164-15.094,0c-4.156,4.164-4.156,10.922,0,15.086
			c0.016,0.008,0.016,0.008,0.032,0.016l45.219,45.234c4.172,4.172,10.922,4.164,15.094,0S154.579,134.152,150.407,129.98z"/>
	</g>
</g>
<g>
	<g>
		<path d="M64,346.66H21.328c-5.891,0-10.656,4.781-10.656,10.672s4.766,10.672,10.656,10.672H64
			c5.891,0,10.672-4.781,10.672-10.672S69.891,346.66,64,346.66z"/>
	</g>
</g>
<g>
	<g>
		<path d="M490.672,410.66H448c-5.891,0-10.672,4.781-10.672,10.672s4.781,10.672,10.672,10.672h42.672
			c5.891,0,10.656-4.781,10.656-10.672S496.562,410.66,490.672,410.66z"/>
	</g>
</g>
<g>
	<g>
		<path d="M234.672,346.66h-128c-5.891,0-10.672,4.781-10.672,10.672s4.781,10.672,10.672,10.672h128
			c5.891,0,10.656-4.781,10.656-10.672S240.562,346.66,234.672,346.66z"/>
	</g>
</g>
<g>
	<g>
		<path d="M490.672,346.66h-128c-5.891,0-10.672,4.781-10.672,10.672s4.781,10.672,10.672,10.672h128
			c5.891,0,10.656-4.781,10.656-10.672S496.562,346.66,490.672,346.66z"/>
	</g>
</g>
<g>
	<g>
		<path d="M320,346.66h-42.672c-5.891,0-10.656,4.781-10.656,10.672s4.766,10.672,10.656,10.672H320
			c5.891,0,10.672-4.781,10.672-10.672S325.891,346.66,320,346.66z"/>
	</g>
</g>
<g>
	<g>
		<path d="M64,474.66H21.328c-5.891,0-10.656,4.781-10.656,10.672s4.766,10.672,10.656,10.672H64
			c5.891,0,10.672-4.781,10.672-10.672S69.891,474.66,64,474.66z"/>
	</g>
</g>
<g>
	<g>
		<path d="M234.672,474.66h-128c-5.891,0-10.672,4.781-10.672,10.672s4.781,10.672,10.672,10.672h128
			c5.891,0,10.656-4.781,10.656-10.672S240.562,474.66,234.672,474.66z"/>
	</g>
</g>
<g>
	<g>
		<path d="M490.672,474.66h-128c-5.891,0-10.672,4.781-10.672,10.672s4.781,10.672,10.672,10.672h128
			c5.891,0,10.656-4.781,10.656-10.672S496.562,474.66,490.672,474.66z"/>
	</g>
</g>
<g>
	<g>
		<path d="M320,474.66h-42.672c-5.891,0-10.656,4.781-10.656,10.672s4.766,10.672,10.656,10.672H320
			c5.891,0,10.672-4.781,10.672-10.672S325.891,474.66,320,474.66z"/>
	</g>
</g>
<g>
	<g>
		<path d="M149.328,410.66h-128c-5.891,0-10.656,4.781-10.656,10.672s4.766,10.672,10.656,10.672h128
			c5.891,0,10.672-4.781,10.672-10.672S155.219,410.66,149.328,410.66z"/>
	</g>
</g>
<g>
	<g>
		<path d="M405.328,410.66h-128c-5.891,0-10.656,4.781-10.656,10.672s4.766,10.672,10.656,10.672h128
			c5.891,0,10.672-4.781,10.672-10.672S411.219,410.66,405.328,410.66z"/>
	</g>
</g>
<g>
	<g>
		<path d="M234.672,410.66H192c-5.891,0-10.672,4.781-10.672,10.672s4.781,10.672,10.672,10.672h42.672
			c5.891,0,10.656-4.781,10.656-10.672S240.562,410.66,234.672,410.66z"/>
	</g>
</g>
<g>
</g>
<g>
</g>
<g>
</g>
<g>
</g>
<g>
</g>
<g>
</g>
<g>
</g>
<g>
</g>
<g>
</g>
<g>
</g>
<g>
</g>
<g>
</g>
<g>
</g>
<g>
</g>
<g>
</g>
</svg>
