<?xml version="1.0" encoding="iso-8859-1"?>
	<svg version="1.1" id="Layer_1" xmlns="http://www.w3.org/2000/svg" xmlns:xlink="http://www.w3.org/1999/xlink"
	 viewBox="0 0 2800 2800">
		  <path style="transform-origin: 70% 1084px; transform: scaleY(-1)" transform="translate(350, 1200)" d="M0 757q0 38 29 65q27 27 66 27h220q38 0 64.5 -27t26.5 -65q0 -40 -26.5 -67t-64.5 -27h-220q-40 0 -67.5 27t-27.5 67zM312 1505q0 37 26 66q30 27 70 27q34 0 63 -27l155 -158q27 -25 27 -64q0 -38 -26.5 -64.5t-63.5 -26.5q-41 0 -65 27l-160 154q-26 28 -26 66z M590 757q0 113 45.5 217.5t122 180t181.5 121t219 45.5q153 0 284 -76.5t207 -206.5t76 -281q0 -24 -3 -45q-45 27 -103 27q-39 0 -77 -16q1 11 1 34q0 156 -113 266.5t-272 110.5q-158 0 -270.5 -110.5t-112.5 -266.5v-19q-47 -3 -90 -27q-1 -1 -11 -8t-20 -14.5t-25 -20 t-28 -25.5q-11 51 -11 114zM593 367v16q-1 15 2 35q8 57 45 109q21 26 29 33q1 3 4 6l4 4q4 2 13 11q3 4 8.5 8t7.5 6q8 8 15 11l18 12q23 15 53 15h3q16 0 28 -3q5 -2 14 -7v-1q23 -10 36.5 -30.5t13.5 -44.5q0 -27 -15 -45q-10 -14 -24 -25q-3 -1 -6.5 -3t-4.5 -2l-6 -4 q-6 -5 -10.5 -9t-11.5 -11.5t-12 -14.5t-9.5 -16.5t-5.5 -18.5v-14v-2q6 -24 12 -38q11 -22 36 -47q2 -3 26 -27q138 -125 129 -267q-3 -48 -22.5 -92.5t-45.5 -75t-42 -45.5t-27 -22q-1 -1 -6 -4.5t-8 -4.5q-13 -6 -23 -7q-14 -2 -21 -2q-48 0 -76 32q-23 28 -19 63t35 57 l2 2q2 2 5 4.5t7.5 6.5t9 9t9 11t9 12.5t9 14.5t7.5 16t5 17.5t2 18.5q3 32 -16 64q-8 17 -24 35q-11 13 -16 17q-15 18 -16 19q-3 2 -7.5 6t-6.5 5q-24 22 -36 38q-20 25 -26 34q-31 42 -42 83q-7 23 -8 34q0 3 -2 8.5t-2 9.5zM1007 403q0 9 1 15q4 35 21 68.5t37.5 56.5 t40 40.5t33.5 26.5l13 8q24 15 53 15q18 0 32 -3q1 0 5.5 -2.5t6.5 -4.5q2 0 3 -1q1 0 8 -5q32 -19 40 -58q0 -3 0.5 -7t0.5 -5q0 -5 -2 -12.5t-2 -9.5q-11 -36 -45 -53q-53 -35 -56 -74q-1 -13 0 -23q4 -19 18 -42q18 -26 26 -34q25 -25 30 -29q20 -18 50 -54 q87 -104 79 -213q-3 -48 -22.5 -93t-45.5 -74.5t-43 -45.5t-27 -22l-13 -9q-17 -6 -22 -7q-18 -2 -21 -2h-3q-13 0 -20 2q-3 0 -8.5 1.5t-7.5 1.5q-1 0 -3 1t-4 2.5t-3 1.5q-24 17 -28 22q-25 29 -20 63.5t36 56.5l3 4q4 3 9.5 8.5l12.5 12.5t13.5 17t12.5 20.5t9.5 23.5 t4.5 26q2 64 -74 135q-30 27 -47 46q-89 105 -82 208zM1065 1593v221q0 39 27.5 66t65.5 27q39 0 66 -27t27 -66v-221q0 -38 -27 -63t-66 -25q-38 0 -65.5 25t-27.5 63zM1423 418q4 35 21 68.5t37.5 56.5t40 40.5t32.5 26.5l14 8q4 3 11 8q18 7 40 7q54 0 82 -41 q8 -11 11 -24q2 -4 2 -9v-12q0 -50 -48 -75q-51 -34 -56 -74q-6 -54 73 -128q140 -124 131 -267q-3 -48 -22.5 -92.5t-46 -75t-42 -45.5t-26.5 -22q-26 -16 -44 -17q-5 -1 -16 -1q-48 0 -74 32q-24 28 -20 63t34 57q5 2 19 15t30.5 41t18.5 56q3 64 -75 135q-66 58 -100 124 q-36 70 -27 145zM1667 1349q0 40 24 64l156 158q29 27 65 27q38 0 65.5 -27.5t27.5 -65.5q0 -40 -28 -66l-158 -154q-29 -27 -65 -27q-37 0 -62 26.5t-25 64.5zM1913 757q0 35 28 65q25 27 62 27h220q38 0 66.5 -27.5t28.5 -64.5q0 -39 -28 -66.5t-67 -27.5h-220 q-39 0 -64.5 27t-25.5 67z" />
		</svg>