<?xml version="1.0" encoding="iso-8859-1"?>
	<svg version="1.1" id="Layer_1" xmlns="http://www.w3.org/2000/svg" xmlns:xlink="http://www.w3.org/1999/xlink"
	 viewBox="0 0 2800 2800">
		  <path style="transform-origin: 70% 1084px; transform: scaleY(-1)" transform="translate(350, 1200)" d="M0 -283h42l734 1086q15 29 -16 29h-303l319 581q14 29 -21 29h-406q-17 0 -31 -19l-296 -789q-4 -29 20 -29h293zM907 392h29l557 818q8 13 4 21t-18 8h-224l233 430q19 32 -19 32h-292q-21 0 -32 -20l-222 -585q-5 -14 1 -22t20 -8h218z" />
		</svg>