<?xml version="1.0" encoding="iso-8859-1"?>
	<svg version="1.1" id="Layer_1" xmlns="http://www.w3.org/2000/svg" xmlns:xlink="http://www.w3.org/1999/xlink"
	 viewBox="0 0 2800 2800">
		  <path style="transform-origin: 70% 1084px; transform: scaleY(-1)" transform="translate(350, 1200)" d="M0 1000q0 150 94.5 268.5t239.5 150.5q41 180 184.5 295t328.5 115q180 0 322 -112.5t184 -286.5h29q180 0 307 -125.5t127 -304.5q0 -96 -39.5 -181.5t-109.5 -146.5v-3q0 -95 -59.5 -169.5t-149.5 -94.5q-23 -100 -97 -169t-174 -85q46 -55 46 -121q0 -77 -54.5 -132 t-131.5 -55t-131.5 55t-54.5 132q0 31 11 61h-11q-93 0 -160 67t-67 160q0 64 32 114q-83 46 -120 133h-125h-2h-9v1q-172 11 -291 136t-119 298zM149 1026q0 -128 90 -218t217 -90q79 0 146 36q19 -119 111 -198t216 -79q139 0 237 98q66 -76 164 -76q91 0 155.5 64.5 t64.5 155.5q64 43 101 110.5t37 146.5q0 127 -91 215.5t-219 88.5q-89 0 -163 -47q9 39 9 84q0 154 -110 262t-266 108q-150 0 -259 -104t-114 -253q-3 0 -9 0.5t-10 0.5q-126 0 -216.5 -89.5t-90.5 -215.5z" />
		</svg>