<?xml version="1.0" encoding="iso-8859-1"?>
	<svg version="1.1" id="Layer_1" xmlns="http://www.w3.org/2000/svg" xmlns:xlink="http://www.w3.org/1999/xlink"
	 viewBox="0 0 2800 2800">
		  <path style="transform-origin: 70% 1084px; transform: scaleY(-1)" transform="translate(350, 1200)" d="M0 527q0 184 115 327.5t291 184.5q50 218 225 358t400 140q220 0 392.5 -136.5t224.5 -350.5h34q143 0 265 -69.5t193 -190t71 -263.5q0 -140 -67.5 -260.5t-184.5 -192.5t-256 -76q-21 0 -21 18v142q0 19 21 19q136 7 232.5 109t96.5 241t-104 241.5t-246 102.5h-172 q-19 0 -19 18l-8 62q-18 173 -148.5 289.5t-303.5 116.5q-175 0 -304.5 -116.5t-145.5 -289.5l-8 -57q0 -20 -21 -20l-56 -3q-133 -16 -223.5 -114t-90.5 -230q0 -139 96 -241t233 -109q18 0 18 -19v-142q0 -18 -18 -18q-214 10 -362.5 163t-148.5 366zM571 -186q0 7 4 21 l174 615q10 31 34.5 47t49.5 16q11 0 26 -3q38 -7 57.5 -39t8.5 -71l-174 -611q-20 -68 -88 -68q-6 0 -12 2q-9 3 -11 3q-35 10 -52 35.5t-17 52.5zM851 -486l260 936q7 31 32 47t52 16q14 0 29 -3q35 -10 52 -41.5t7 -68.5l-259 -937q-6 -27 -31 -46t-54 -19q-15 0 -27 5 q-32 8 -55 42q-18 28 -6 69zM1291 -189q0 6 4 24l174 615q9 31 32.5 47t49.5 16q13 0 28 -3q33 -9 49.5 -33t16.5 -50q0 -5 -2 -14.5t-2 -12.5l-174 -611q-6 -31 -30 -49.5t-54 -18.5l-26 5q-32 9 -49 34.5t-17 50.5z" />
		</svg>