<?xml version="1.0" encoding="iso-8859-1"?>
	<svg version="1.1" id="Layer_1" xmlns="http://www.w3.org/2000/svg" xmlns:xlink="http://www.w3.org/1999/xlink"
	 viewBox="0 0 2800 2800">
		  <path style="transform-origin: 70% 1084px; transform: scaleY(-1)" transform="translate(350, 1200)" d="M0 521q0 -39 30 -66q26 -30 67 -30h1567q46 0 78 -32t32 -79q0 -46 -31.5 -76.5t-78.5 -30.5t-78 31q-26 28 -64 28q-40 0 -68.5 -27.5t-28.5 -65.5q0 -40 30 -67q90 -88 209 -88q125 0 214 86t89 210t-89.5 213.5t-213.5 89.5h-1567q-40 0 -68.5 -28t-28.5 -68zM0 871 q0 -37 30 -65q28 -28 67 -28h2138q125 0 214.5 87t89.5 210q0 124 -89.5 212t-214.5 88q-123 0 -208 -85q-29 -26 -29 -71q0 -41 27.5 -67t67.5 -26q39 0 67 26q30 33 75 33q46 0 77.5 -32t31.5 -78t-31.5 -77t-77.5 -31h-2138q-40 0 -68.5 -28t-28.5 -68z" />
		</svg>